<svg width="24" height="24" viewBox="0 0 24 24" fill="none" xmlns="http://www.w3.org/2000/svg">
<g clip-path="url(#clip0_86_6850)">
<path d="M12 2.16276C15.206 2.16276 15.5824 2.17705 16.8496 2.23422C18.0215 2.28662 18.655 2.48194 19.079 2.64867C19.6411 2.8678 20.0413 3.12505 20.4605 3.54426C20.8797 3.96348 21.1417 4.36364 21.3561 4.92576C21.5181 5.34974 21.7182 5.98333 21.7706 7.15522C21.8277 8.42239 21.842 8.79873 21.842 12.0048C21.842 15.2108 21.8277 15.5871 21.7706 16.8543C21.7182 18.0262 21.5228 18.6598 21.3561 19.0838C21.137 19.6459 20.8797 20.046 20.4605 20.4653C20.0413 20.8845 19.6411 21.1465 19.079 21.3609C18.655 21.5228 18.0215 21.7229 16.8496 21.7753C15.5824 21.8325 15.206 21.8468 12 21.8468C8.79397 21.8468 8.41763 21.8325 7.15046 21.7753C5.97857 21.7229 5.34498 21.5276 4.921 21.3609C4.35888 21.1417 3.95872 20.8845 3.5395 20.4653C3.12029 20.046 2.85828 19.6459 2.64391 19.0838C2.48194 18.6598 2.28186 18.0262 2.22946 16.8543C2.17229 15.5871 2.158 15.2108 2.158 12.0048C2.158 8.79873 2.17229 8.42239 2.22946 7.15522C2.28186 5.98333 2.47718 5.34974 2.64391 4.92576C2.86304 4.36364 3.12029 3.96348 3.5395 3.54426C3.95872 3.12505 4.35888 2.86304 4.921 2.64867C5.34498 2.4867 5.97857 2.28662 7.15046 2.23422C8.41763 2.17229 8.79874 2.16276 12 2.16276ZM12 0C8.74157 0 8.33188 0.0142914 7.05042 0.0714569C5.77372 0.128622 4.90195 0.333466 4.13974 0.628821C3.34895 0.933704 2.68202 1.34815 2.01509 2.01509C1.34816 2.68202 0.938468 3.35371 0.628821 4.13974C0.333466 4.90195 0.128623 5.77372 0.071457 7.05518C0.0142914 8.33188 0 8.74156 0 12C0 15.2584 0.0142914 15.6681 0.071457 16.9496C0.128623 18.2263 0.333466 19.0981 0.628821 19.865C0.933705 20.6558 1.34816 21.3227 2.01509 21.9897C2.68202 22.6566 3.35371 23.0663 4.13974 23.3759C4.90195 23.6713 5.77372 23.8761 7.05519 23.9333C8.33665 23.9905 8.74157 24.0048 12.0048 24.0048C15.268 24.0048 15.6729 23.9905 16.9544 23.9333C18.2311 23.8761 19.1028 23.6713 19.8698 23.3759C20.6606 23.0711 21.3275 22.6566 21.9945 21.9897C22.6614 21.3227 23.0711 20.6511 23.3807 19.865C23.6761 19.1028 23.8809 18.231 23.9381 16.9496C23.9953 15.6681 24.0095 15.2632 24.0095 12C24.0095 8.7368 23.9953 8.33188 23.9381 7.05042C23.8809 5.77372 23.6761 4.90194 23.3807 4.13497C23.0758 3.34418 22.6614 2.67725 21.9945 2.01032C21.3275 1.34339 20.6558 0.933704 19.8698 0.624057C19.1076 0.328702 18.2358 0.123859 16.9544 0.0666931C15.6681 0.0142914 15.2584 0 12 0Z" fill="white"/>
<path d="M12 2.16276C15.206 2.16276 15.5824 2.17705 16.8496 2.23422C18.0215 2.28662 18.655 2.48194 19.079 2.64867C19.6411 2.8678 20.0413 3.12505 20.4605 3.54426C20.8797 3.96348 21.1417 4.36364 21.3561 4.92576C21.5181 5.34974 21.7182 5.98333 21.7706 7.15522C21.8277 8.42239 21.842 8.79873 21.842 12.0048C21.842 15.2108 21.8277 15.5871 21.7706 16.8543C21.7182 18.0262 21.5228 18.6598 21.3561 19.0838C21.137 19.6459 20.8797 20.046 20.4605 20.4653C20.0413 20.8845 19.6411 21.1465 19.079 21.3609C18.655 21.5228 18.0215 21.7229 16.8496 21.7753C15.5824 21.8325 15.206 21.8468 12 21.8468C8.79397 21.8468 8.41763 21.8325 7.15046 21.7753C5.97857 21.7229 5.34498 21.5276 4.921 21.3609C4.35888 21.1417 3.95872 20.8845 3.5395 20.4653C3.12029 20.046 2.85828 19.6459 2.64391 19.0838C2.48194 18.6598 2.28186 18.0262 2.22946 16.8543C2.17229 15.5871 2.158 15.2108 2.158 12.0048C2.158 8.79873 2.17229 8.42239 2.22946 7.15522C2.28186 5.98333 2.47718 5.34974 2.64391 4.92576C2.86304 4.36364 3.12029 3.96348 3.5395 3.54426C3.95872 3.12505 4.35888 2.86304 4.921 2.64867C5.34498 2.4867 5.97857 2.28662 7.15046 2.23422C8.41763 2.17229 8.79874 2.16276 12 2.16276Z" fill="white"/>
<path d="M11.9998 5.84042C8.59845 5.84042 5.83545 8.59866 5.83545 12.0048C5.83545 15.4109 8.59369 18.1691 11.9998 18.1691C15.4059 18.1691 18.1642 15.4109 18.1642 12.0048C18.1642 8.59866 15.4059 5.84042 11.9998 5.84042ZM11.9998 16.0016C9.7894 16.0016 7.99821 14.2104 7.99821 12C7.99821 9.78961 9.7894 7.99842 11.9998 7.99842C14.2102 7.99842 16.0014 9.78961 16.0014 12C16.0014 14.2104 14.2102 16.0016 11.9998 16.0016Z" fill="#0B2A5A"/>
<path d="M18.4074 7.03135C19.202 7.03135 19.8461 6.38724 19.8461 5.59269C19.8461 4.79814 19.202 4.15402 18.4074 4.15402C17.6129 4.15402 16.9688 4.79814 16.9688 5.59269C16.9688 6.38724 17.6129 7.03135 18.4074 7.03135Z" fill="#0B2A5A"/>
</g>
<defs>
<clipPath id="clip0_86_6850">
<rect width="24" height="24" fill="white"/>
</clipPath>
</defs>
</svg>
