<svg width="28" height="22" viewBox="0 0 28 22" fill="none" xmlns="http://www.w3.org/2000/svg">
<path d="M3.33333 21.6668C2.6 21.6668 1.97222 21.4057 1.45 20.8835C0.927777 20.3613 0.666666 19.7335 0.666666 19.0002V3.00016C0.666666 2.26683 0.927777 1.63905 1.45 1.11683C1.97222 0.594607 2.6 0.333496 3.33333 0.333496H24.6667C25.4 0.333496 26.0278 0.594607 26.55 1.11683C27.0722 1.63905 27.3333 2.26683 27.3333 3.00016V19.0002C27.3333 19.7335 27.0722 20.3613 26.55 20.8835C26.0278 21.4057 25.4 21.6668 24.6667 21.6668H3.33333ZM14 12.3335L24.6667 5.66683V3.00016L14 9.66683L3.33333 3.00016V5.66683L14 12.3335Z" fill="#02C981"/>
</svg>
