<svg width="24" height="25" viewBox="0 0 24 25" fill="none" xmlns="http://www.w3.org/2000/svg">
<mask id="mask0_86_6839" style="mask-type:alpha" maskUnits="userSpaceOnUse" x="0" y="0" width="24" height="25">
<rect y="0.5" width="24" height="24" fill="#D9D9D9"/>
</mask>
<g mask="url(#mask0_86_6839)">
<path d="M19 12.4502C19 10.5002 18.3208 8.84603 16.9625 7.4877C15.6042 6.12936 13.95 5.4502 12 5.4502V3.4502C13.25 3.4502 14.4208 3.6877 15.5125 4.1627C16.6042 4.6377 17.5542 5.27936 18.3625 6.0877C19.1708 6.89603 19.8125 7.84603 20.2875 8.9377C20.7625 10.0294 21 11.2002 21 12.4502H19ZM15 12.4502C15 11.6169 14.7083 10.9085 14.125 10.3252C13.5417 9.74186 12.8333 9.4502 12 9.4502V7.4502C13.3833 7.4502 14.5625 7.9377 15.5375 8.9127C16.5125 9.8877 17 11.0669 17 12.4502H15ZM19.95 21.5002C17.8 21.5002 15.7042 21.021 13.6625 20.0627C11.6208 19.1044 9.8125 17.8377 8.2375 16.2627C6.6625 14.6877 5.39583 12.8794 4.4375 10.8377C3.47917 8.79603 3 6.7002 3 4.5502C3 4.2502 3.1 4.0002 3.3 3.8002C3.5 3.6002 3.75 3.5002 4.05 3.5002H8.1C8.33333 3.5002 8.54167 3.5752 8.725 3.7252C8.90833 3.8752 9.01667 4.06686 9.05 4.3002L9.7 7.8002C9.73333 8.03353 9.72917 8.24603 9.6875 8.4377C9.64583 8.62936 9.55 8.8002 9.4 8.9502L7 11.4002C7.7 12.6002 8.575 13.7252 9.625 14.7752C10.675 15.8252 11.8333 16.7335 13.1 17.5002L15.45 15.1502C15.6 15.0002 15.7958 14.8877 16.0375 14.8127C16.2792 14.7377 16.5167 14.7169 16.75 14.7502L20.2 15.4502C20.4333 15.5002 20.625 15.6127 20.775 15.7877C20.925 15.9627 21 16.1669 21 16.4002V20.4502C21 20.7502 20.9 21.0002 20.7 21.2002C20.5 21.4002 20.25 21.5002 19.95 21.5002Z" fill="white"/>
</g>
</svg>
