<svg width="32" height="32" viewBox="0 0 32 32" fill="none" xmlns="http://www.w3.org/2000/svg">
<g clip-path="url(#clip0_48_1775)">
<path d="M4 28H28" stroke="#02C981" stroke-width="2.75" stroke-linecap="round" stroke-linejoin="round"/>
<path d="M4 9.33333V10.6667C4 11.7275 4.42143 12.7449 5.17157 13.4951C5.92172 14.2452 6.93913 14.6667 8 14.6667C9.06087 14.6667 10.0783 14.2452 10.8284 13.4951C11.5786 12.7449 12 11.7275 12 10.6667M4 9.33333H28M4 9.33333L6.66667 4H25.3333L28 9.33333M12 10.6667V9.33333M12 10.6667C12 11.7275 12.4214 12.7449 13.1716 13.4951C13.9217 14.2452 14.9391 14.6667 16 14.6667C17.0609 14.6667 18.0783 14.2452 18.8284 13.4951C19.5786 12.7449 20 11.7275 20 10.6667M20 10.6667V9.33333M20 10.6667C20 11.7275 20.4214 12.7449 21.1716 13.4951C21.9217 14.2452 22.9391 14.6667 24 14.6667C25.0609 14.6667 26.0783 14.2452 26.8284 13.4951C27.5786 12.7449 28 11.7275 28 10.6667V9.33333" stroke="#02C981" stroke-width="2.75" stroke-linecap="round" stroke-linejoin="round"/>
<path d="M6.66669 28.0001V14.4668" stroke="#02C981" stroke-width="2.75" stroke-linecap="round" stroke-linejoin="round"/>
<path d="M25.3333 28.0001V14.4668" stroke="#02C981" stroke-width="2.75" stroke-linecap="round" stroke-linejoin="round"/>
<path d="M12 28V22.6667C12 21.9594 12.281 21.2811 12.781 20.781C13.2811 20.281 13.9594 20 14.6667 20H17.3333C18.0406 20 18.7189 20.281 19.219 20.781C19.719 21.2811 20 21.9594 20 22.6667V28" stroke="#02C981" stroke-width="2.75" stroke-linecap="round" stroke-linejoin="round"/>
</g>
<defs>
<clipPath id="clip0_48_1775">
<rect width="32" height="32" fill="white"/>
</clipPath>
</defs>
</svg>
