<svg width="32" height="32" viewBox="0 0 32 32" fill="none" xmlns="http://www.w3.org/2000/svg">
<path d="M31.3409 8.30556C30.9719 6.93489 29.8911 5.85417 28.5205 5.48514C26.0164 4.7998 15.9999 4.7998 15.9999 4.7998C15.9999 4.7998 5.9835 4.7998 3.47939 5.45878C2.13508 5.82781 1.028 6.93489 0.658976 8.30556C0 10.8097 0 16.0024 0 16.0024C0 16.0024 0 21.2215 0.658976 23.6992C1.028 25.0699 2.10872 26.1506 3.47939 26.5196C6.00986 27.205 15.9999 27.205 15.9999 27.205C15.9999 27.205 26.0164 27.205 28.5205 26.546C29.8911 26.177 30.9719 25.0963 31.3409 23.7256C31.9999 21.2215 31.9999 16.0288 31.9999 16.0288C31.9999 16.0288 32.0262 10.8097 31.3409 8.30556Z" fill="#02C981"/>
<path d="M12.8105 20.7998L21.14 16.0024L12.8105 11.2051V20.7998Z" fill="white"/>
</svg>
